<svg xmlns="http://www.w3.org/2000/svg" height="40" viewBox="0 96 960 960" width="40"><path d="M322.667 780h66.666v-43.333h45.334q16.333 0 26.499-11.834 10.167-11.833 10.167-27.5V580.837q0-16.504-10.167-28.004-10.166-11.5-26.499-11.5H304.666V482h166.667v-66.667h-82V372h-66.666v43.333h-45.334q-16.333 0-27.833 11.834Q238 439 238 455.411v115.844q0 16.412 11.5 26.578Q261 608 277.333 608h127.334v62H238v66.667h84.667V780Zm324-33.333L713.333 680H580.001l66.666 66.667ZM580.001 482h133.332l-66.666-66.667L580.001 482ZM146.666 896q-27 0-46.833-19.833T80 829.334V322.666q0-27 19.833-46.833T146.666 256h666.668q27 0 46.833 19.833T880 322.666v506.668q0 27-19.833 46.833T813.334 896H146.666Zm0-66.666h666.668V322.666H146.666v506.668Zm0 0V322.666v506.668Z"/></svg>