<svg xmlns="http://www.w3.org/2000/svg" height="40" viewBox="0 96 960 960" width="40"><path d="M600 896q-134 0-227-93t-93-227q0-134 93-227t227-93q134 0 227 93t93 227q0 134-93 227t-227 93Zm-310.666-11.333q-110.667-18.667-180.001-107Q40 689.333 40 576t69.333-201.667q69.334-88.333 180.001-107V334q-82.667 18.999-132.668 87.333-50 68.333-50 154.667t50 154.667Q206.667 799.001 289.334 818v66.667ZM600 576Zm0 253.334q104.667 0 179-74.334 74.334-74.333 74.334-179T779 397q-74.333-74.334-179-74.334T421 397q-74.334 74.333-74.334 179T421 755q74.333 74.334 179 74.334Z"/></svg>